<svg width="45" height="45" viewBox="0 0 45 45" fill="none" xmlns="http://www.w3.org/2000/svg">
<path d="M41.25 22.5H30L26.25 28.125H18.75L15 22.5H3.75" stroke="#0E467B" stroke-width="3" stroke-linecap="round" stroke-linejoin="round"/>
<path d="M10.2187 9.58125L3.75 22.5V33.75C3.75 34.7446 4.14509 35.6984 4.84835 36.4016C5.55161 37.1049 6.50544 37.5 7.5 37.5H37.5C38.4946 37.5 39.4484 37.1049 40.1516 36.4016C40.8549 35.6984 41.25 34.7446 41.25 33.75V22.5L34.7812 9.58125C34.4708 8.95648 33.9922 8.4307 33.3993 8.06302C32.8064 7.69535 32.1227 7.50037 31.425 7.5H13.575C12.8773 7.50037 12.1936 7.69535 11.6007 8.06302C11.0078 8.4307 10.5292 8.95648 10.2187 9.58125V9.58125Z" stroke="#0E467B" stroke-width="3" stroke-linecap="round" stroke-linejoin="round"/>
</svg>
