<svg width="60" height="65" viewBox="0 0 60 65" fill="none" xmlns="http://www.w3.org/2000/svg">
<path d="M52.5 27.082C52.5 46.0404 30 62.2904 30 62.2904C30 62.2904 7.5 46.0404 7.5 27.082C7.5 20.6174 9.87053 14.4175 14.0901 9.8463C18.3097 5.2751 24.0326 2.70703 30 2.70703C35.9674 2.70703 41.6903 5.2751 45.9099 9.8463C50.1295 14.4175 52.5 20.6174 52.5 27.082Z" stroke="#252525" stroke-width="4" stroke-linecap="round" stroke-linejoin="round"/>
<path d="M30 35.207C34.1421 35.207 37.5 31.5693 37.5 27.082C37.5 22.5947 34.1421 18.957 30 18.957C25.8579 18.957 22.5 22.5947 22.5 27.082C22.5 31.5693 25.8579 35.207 30 35.207Z" stroke="#252525" stroke-width="4" stroke-linecap="round" stroke-linejoin="round"/>
</svg>
