<svg width="31" height="28" viewBox="0 0 31 28" fill="none" xmlns="http://www.w3.org/2000/svg">
<path d="M28.4154 14H20.6654L18.082 17.5H12.9154L10.332 14H2.58203" stroke="#252525" stroke-width="2" stroke-linecap="round" stroke-linejoin="round"/>
<path d="M7.03828 5.96297L2.58203 14.0013V21.0013C2.58203 21.6201 2.8542 22.2136 3.33867 22.6512C3.82314 23.0888 4.48022 23.3346 5.16536 23.3346H25.832C26.5172 23.3346 27.1743 23.0888 27.6587 22.6512C28.1432 22.2136 28.4154 21.6201 28.4154 21.0013V14.0013L23.9591 5.96297C23.7452 5.57422 23.4155 5.24707 23.0071 5.01829C22.5986 4.78952 22.1276 4.6682 21.647 4.66797H9.35036C8.86976 4.6682 8.39875 4.78952 7.9903 5.01829C7.58185 5.24707 7.25215 5.57422 7.03828 5.96297V5.96297Z" stroke="#252525" stroke-width="2" stroke-linecap="round" stroke-linejoin="round"/>
</svg>
