<svg width="145" height="46" viewBox="0 0 145 46" fill="none" xmlns="http://www.w3.org/2000/svg">
<path d="M132.173 9.31293V9.28906C132.168 9.28906 132.168 9.29384 132.164 9.29384C132.154 9.29384 132.154 9.28906 132.144 9.28906V9.31293L119.789 34.0381H122.682L125.747 27.8126H125.752L125.747 27.8031L127.022 25.311H127.017L132.159 14.9655L137.296 25.311H137.286L138.561 27.8031L138.556 27.8126H138.57L141.635 34.0381H144.533L132.173 9.31293Z" fill="#F69321"/>
<path d="M70.7359 31.5408H69.6187H69.2607H68.831C68.1387 31.4787 66.8545 31.1254 66.7733 29.2349V28.5713H66.7686V23.7828C66.7161 23.7255 66.6922 23.6635 66.6444 23.611H66.7686V19.954V18.2019V14.3731V12.769V9.22656H64.2812V12.9886V23.611V31.7365C64.3624 33.6271 65.6466 33.9851 66.3341 34.0376H66.7686H70.7359H81.5731H82.8478V31.5408H81.5731H70.7359Z" fill="#F69321"/>
<path d="M101.099 8.67535C99.4661 8.72309 97.9432 9.04296 96.5682 9.6063C95.0167 10.2604 93.6179 11.2009 92.4148 12.3944C91.2308 13.6118 90.2998 15.0058 89.641 16.5383C88.9726 18.1615 88.6289 19.8563 88.6289 21.575C88.6289 23.3032 88.9726 25.0076 89.641 26.626C90.2998 28.1824 91.2356 29.5764 92.4243 30.7652C93.6131 31.9587 95.0119 32.8992 96.573 33.5533C97.7809 34.0498 99.0747 34.3553 100.421 34.4699V34.5224H110.069C110.771 34.4699 112.051 34.1118 112.199 32.2786C112.208 32.2786 112.208 32.2786 112.213 32.2786V31.128V24.4538V21.8901C112.208 21.8901 112.208 21.8901 112.199 21.8901C112.051 20.0664 110.766 19.7036 110.069 19.6463H109.377V19.6415H104.474H101.099H98.6641V21.0212H98.6545V22.2529H101.089H102.932H105.372H107.468C108.16 22.3102 109.42 22.6587 109.597 24.4252V29.7387C109.42 31.5099 108.16 31.8585 107.468 31.9157H100.531C95.3222 31.3667 91.2547 26.9411 91.2547 21.575C91.2547 16.0132 95.623 11.4634 101.099 11.1913V11.2104H112.213V8.65625H101.099V8.67535Z" fill="#F69321"/>
<path d="M51.6118 9.16797H47.5347C40.6838 9.16797 35.1172 14.7203 35.1172 21.5807C35.1172 28.4458 40.679 33.9934 47.5347 33.9934H51.6118H52.4377H56.2522V31.4822H52.4377H51.6118H47.5347C42.3786 31.4822 38.1392 27.534 37.6761 22.4877H38.2442H50.8813H51.6165H52.4424H56.257V19.9861H52.4424H51.6165H50.8813H38.2442H37.7668C38.5307 15.2693 42.6173 11.6792 47.5347 11.6792H51.6118H52.4377H56.2522V9.16797H52.4377H51.6118Z" fill="#F69321"/>
<path d="M19.9695 0.957031C19.9695 0.957031 19.8072 2.54203 17.4249 4.13181C15.1143 5.66908 10.6027 7.12041 12.0923 11.8993L12.1448 9.98011L13.0137 8.62426L18.1936 5.55928L20.0125 3.90266L20.5281 2.03121L19.9695 0.957031Z" fill="#D1D2D3"/>
<path d="M35.6719 45.5518V39.1641H36.9991L38.6461 41.8996C39.071 42.611 39.4434 43.351 39.7346 44.0432H39.7537C39.6774 43.1934 39.6487 42.3675 39.6487 41.3936V39.1641H40.7277V45.5518H39.5246L37.8584 42.7399C37.4526 42.0476 37.0277 41.2599 36.7126 40.539L36.684 40.5486C36.7317 41.3745 36.7413 42.2147 36.7413 43.2698V45.5518H35.6719Z" fill="#BBBDBF"/>
<path d="M54.6492 42.7208H52.243V44.597H54.9356V45.5518H51.0781V39.1641H54.7924V40.1237H52.243V41.7707H54.6492V42.7208Z" fill="#BBBDBF"/>
<path d="M66.2799 40.1428H64.4609V39.1641H69.2828V40.1428H67.4448V45.5518H66.2799V40.1428Z" fill="#BBBDBF"/>
<path d="M80.3893 45.5518L78.8281 39.1641H80.0694L80.6757 42.062C80.838 42.8401 80.9908 43.6517 81.0911 44.2867H81.1102C81.2152 43.6135 81.3918 42.8592 81.5732 42.0524L82.2655 39.1641H83.4877L84.1226 42.1002C84.2849 42.8592 84.4186 43.5706 84.5141 44.2628H84.5332C84.6478 43.561 84.8005 42.8306 84.9676 42.0572L85.6312 39.1688H86.8152L85.1013 45.5566H83.8505L83.1869 42.5537C83.0246 41.8232 82.91 41.2169 82.8336 40.5247H82.8145C82.6999 41.2074 82.5758 41.8232 82.3896 42.5537L81.6496 45.5566H80.3893V45.5518Z" fill="#BBBDBF"/>
<path d="M102.215 42.2868C102.215 44.4304 100.916 45.6525 99.1548 45.6525C97.355 45.6525 96.2188 44.2776 96.2188 42.4013C96.2188 40.4392 97.4505 39.0547 99.2503 39.0547C101.112 39.0595 102.215 40.4726 102.215 42.2868ZM97.4505 42.3822C97.4505 43.6808 98.1045 44.7216 99.2217 44.7216C100.348 44.7216 100.983 43.6713 100.983 42.3345C100.983 41.1314 100.387 39.9856 99.2217 39.9856C98.0616 39.9856 97.4505 41.0694 97.4505 42.3822Z" fill="#BBBDBF"/>
<path d="M112.215 39.247C112.649 39.1706 113.303 39.1133 113.976 39.1133C114.893 39.1133 115.519 39.266 115.948 39.6241C116.301 39.9201 116.497 40.3641 116.497 40.9036C116.497 41.7295 115.939 42.2881 115.342 42.5029V42.5315C115.795 42.7034 116.072 43.1474 116.23 43.7633C116.43 44.5605 116.602 45.3005 116.731 45.544H115.528C115.433 45.3578 115.285 44.8327 115.103 44.0354C114.922 43.2047 114.621 42.9373 113.957 42.9183H113.37V45.544H112.215V39.247ZM113.37 42.0732H114.062C114.85 42.0732 115.342 41.6579 115.342 41.0229C115.342 40.3211 114.85 40.0013 114.091 40.0013C113.719 40.0013 113.485 40.0299 113.37 40.0585V42.0732Z" fill="#BBBDBF"/>
<path d="M126.617 39.1641H127.773V42.1002H127.801C127.954 41.8519 128.116 41.6275 128.264 41.4079L129.93 39.1641H131.372L129.176 41.8805L131.515 45.5471H130.15L128.341 42.6205L127.773 43.3032V45.5471H126.617V39.1641Z" fill="#BBBDBF"/>
<path d="M141.105 44.2767C141.482 44.4963 142.05 44.6825 142.647 44.6825C143.396 44.6825 143.812 44.3292 143.812 43.8136C143.812 43.3314 143.487 43.045 142.675 42.7538C141.62 42.3766 140.952 41.818 140.952 40.8966C140.952 39.8559 141.821 39.0586 143.205 39.0586C143.897 39.0586 144.408 39.2066 144.742 39.3785L144.461 40.319C144.232 40.1948 143.788 40.0182 143.191 40.0182C142.451 40.0182 142.131 40.4144 142.131 40.7868C142.131 41.2786 142.499 41.5077 143.353 41.8371C144.466 42.2525 145 42.8111 145 43.7325C145 44.7541 144.222 45.6564 142.575 45.6564C141.902 45.6564 141.2 45.4559 140.852 45.2458L141.105 44.2767Z" fill="#BBBDBF"/>
<path d="M23.3819 5.90625C23.3819 5.90625 20.928 11.2007 13.318 13.1963C5.70809 15.1919 -0.746506 22.6586 0.0698681 29.7386L4.13741 22.7398L12.8454 17.5312L21.2287 12.8096L23.3437 8.90439L23.3819 5.90625Z" fill="#D1D2D3"/>
<path d="M21.5675 3.44922C22.212 4.59978 22.5796 5.92221 22.5796 7.33058C22.5796 11.7371 19.0086 15.3081 14.6021 15.3081C10.1956 15.3081 6.62455 11.7371 6.62455 7.33058C6.62455 6.3853 6.79642 5.48299 7.09719 4.64275C6.4861 5.82195 6.13281 7.15871 6.13281 8.58139C6.13281 13.3173 9.9712 17.1557 14.7071 17.1557C19.443 17.1557 23.2814 13.3173 23.2814 8.58139C23.2862 6.65265 22.6417 4.87668 21.5675 3.44922Z" fill="#CE6A28"/>
<path d="M7.05899 10.8563C7.05899 6.44983 10.63 2.87879 15.0365 2.87879C19.3953 2.87879 22.9282 6.37344 23.0045 10.7083C23.1812 10.0256 23.2814 9.3143 23.2814 8.57432C23.2814 3.83839 19.4431 0 14.7071 0C9.9712 0 6.13281 3.83839 6.13281 8.57432C6.13281 10.1736 6.57681 11.6679 7.34067 12.9474C7.1688 12.2838 7.05899 11.582 7.05899 10.8563Z" fill="#F69321"/>
<path opacity="0.7" d="M6.75213 11.5455C6.86671 11.8081 7.00038 12.0611 7.14361 12.3094C6.05988 8.71925 8.0125 4.70422 11.7936 3.05238C15.8516 1.2764 20.4825 2.89005 22.1296 6.66161C22.4256 7.3443 22.6022 8.05088 22.6738 8.76222C22.8552 7.44934 22.6929 6.09349 22.1391 4.82358C20.4157 0.880156 15.5747 -0.809883 11.3257 1.04725C7.072 2.89961 5.02868 7.6021 6.75213 11.5455Z" fill="url(#paint0_linear_1209_2395)"/>
<path d="M25.6761 19.4102C25.6761 19.4102 25.3753 22.3415 20.9783 25.2728C16.7103 28.1181 8.3699 30.7964 11.1246 39.6285L11.2248 36.0766L12.8289 33.5702L22.4058 27.9081L25.7668 24.8479L26.7168 21.3914L25.6761 19.4102Z" fill="#D1D2D3"/>
<path d="M2.60755 32.4781C2.60755 25.3885 8.35081 19.6452 15.4356 19.6452C22.5252 19.6452 28.2684 25.3885 28.2684 32.4781C28.2684 33.9485 28.0058 35.3616 27.5523 36.6793C28.5262 34.7458 29.0848 32.5688 29.0848 30.2533C29.0848 22.3283 22.6588 15.9023 14.7338 15.9023C6.80877 15.9023 0.382812 22.3283 0.382812 30.2533C0.382812 35.7483 3.47644 40.5177 8.01185 42.9286C4.74636 40.6036 2.60755 36.7939 2.60755 32.4781Z" fill="#CE6A28"/>
<path d="M14.7478 15.9688C12.5564 15.9688 10.4893 16.4748 8.62735 17.3532C9.60604 17.105 10.6277 16.957 11.6876 16.957C18.5002 16.957 24.0239 22.4806 24.0239 29.2933C24.0239 36.106 18.5002 41.6248 11.6876 41.6248C7.8062 41.6248 4.34496 39.825 2.08203 37.0226C4.48819 41.5532 9.25753 44.6469 14.7478 44.6469C22.668 44.6469 29.0844 38.2257 29.0844 30.3102C29.0892 22.3852 22.668 15.9688 14.7478 15.9688Z" fill="#F69321"/>
<path opacity="0.5" d="M14.1989 15.7422C13.669 15.7422 13.1486 15.7756 12.6378 15.8329C19.4552 16.5872 24.7545 22.3639 24.7545 29.3818C24.7545 36.9106 18.6484 43.0167 11.1196 43.0167C9.75424 43.0167 8.44136 42.8114 7.19531 42.439C9.26728 43.6087 11.6543 44.2866 14.1989 44.2866C22.081 44.2866 28.4688 37.8989 28.4688 30.0168C28.4688 22.13 22.081 15.7422 14.1989 15.7422Z" fill="url(#paint1_linear_1209_2395)"/>
<path d="M12.0965 11.8993C12.0965 11.8993 10.755 8.4333 13.6767 6.87216C16.5937 5.31102 20.4225 3.31544 19.9738 0.957031C19.9738 0.957031 22.3943 2.95261 21.4203 4.49942C20.4416 6.04624 19.2242 6.61436 17.7586 7.34957C16.2882 8.08001 12.0917 10.2236 12.0965 11.8993Z" fill="#1B4177"/>
<path d="M11.1227 39.6324C11.1227 39.6324 8.64491 33.2304 14.0397 30.3468C19.4344 27.4632 26.5001 23.7776 25.6742 19.4141C25.6742 19.4141 30.1475 23.0997 28.3429 25.9546C26.5383 28.8143 24.2849 29.8646 21.5732 31.2204C18.8663 32.5715 11.1227 36.5388 11.1227 39.6324Z" fill="#1B4177"/>
<path opacity="0.3" d="M11.4062 37.4442C11.4062 37.4442 11.9219 31.8442 16.3904 29.4523C20.859 27.0653 26.7407 23.7663 26.0532 20.1523C26.0532 20.1523 29.715 23.6709 27.9677 25.9099C26.2442 28.1156 24.8979 29.1038 22.6588 30.221C20.415 31.3476 11.4062 34.8805 11.4062 37.4442Z" fill="url(#paint2_linear_1209_2395)"/>
<path opacity="0.3" d="M13.4531 9.69369C13.4531 9.69369 13.6918 7.10135 15.7638 5.99375C17.8358 4.88616 20.557 3.35844 20.2419 1.6875C20.2419 1.6875 21.9367 3.31547 21.1251 4.35623C20.3279 5.37789 19.7024 5.83621 18.6665 6.35658C17.6257 6.86741 13.4531 8.50494 13.4531 9.69369Z" fill="url(#paint3_linear_1209_2395)"/>
<path d="M10.1524 21.6131C10.2097 21.5892 10.5486 21.4508 11.0785 21.2312C11.5798 21.0211 12.2434 20.7299 12.9977 20.3861C13.8571 19.9899 14.8262 19.5268 15.8001 19.0207C17.4759 18.1471 19.1468 17.1588 20.2114 16.2136C20.2449 16.1849 20.2735 16.1563 20.3069 16.1276C20.4836 15.9653 20.6459 15.8078 20.7843 15.6502C22.8181 13.3157 23.7634 11.2055 23.6727 8.25511C23.6154 6.41231 23.3671 6.33115 23.3242 5.90625C23.3242 5.90625 23.2287 10.6565 15.6951 13.4971C12.9214 14.5426 10.9353 15.3685 9.42671 16.0656C7.25449 17.0729 6.09438 17.8511 5.15865 18.8107C2.01728 21.5749 0.03125 25.6663 0.03125 30.2351C0.03125 32.5554 0.546853 34.7467 1.45871 36.7088C1.45394 36.6707 1.45871 36.6277 1.45393 36.5895C1.42052 36.1932 1.40142 35.7922 1.40142 35.3864C1.40142 29.2469 4.99633 23.962 10.1524 21.6131Z" fill="#1B4177"/>
<mask id="mask0_1209_2395" style="mask-type:luminance" maskUnits="userSpaceOnUse" x="119" y="9" width="26" height="26">
<path d="M132.165 9.30903V9.28516C132.161 9.28516 132.161 9.28994 132.156 9.28994C132.146 9.28994 132.146 9.28516 132.137 9.28516V9.30903L119.781 34.0342H122.674L125.739 27.8087H125.744L125.739 27.7992L127.014 25.3071H127.009L132.151 14.9616L137.288 25.3071H137.278L138.553 27.7992L138.548 27.8087H138.563L141.628 34.0342H144.525L132.165 9.30903Z" fill="white"/>
</mask>
<g mask="url(#mask0_1209_2395)">
<path opacity="0.5" d="M132.247 9.72309V9.69922C132.243 9.69922 132.243 9.704 132.238 9.704C132.228 9.704 132.228 9.69922 132.219 9.69922V9.72309L119.863 34.4482H122.756L125.821 28.2228H125.826L125.821 28.2132L127.096 25.7211H127.091L132.233 15.3756L137.37 25.7211H137.36L138.635 28.2132L138.63 28.2228H138.645L141.71 34.4482H144.608L132.247 9.72309Z" fill="url(#paint4_linear_1209_2395)"/>
</g>
<mask id="mask1_1209_2395" style="mask-type:luminance" maskUnits="userSpaceOnUse" x="64" y="9" width="19" height="26">
<path d="M70.7319 31.533H69.6148H69.2567H68.8271C68.1348 31.4709 66.8506 31.1176 66.7694 29.2271V28.5635H66.7647V23.775C66.7121 23.7177 66.6883 23.6557 66.6405 23.6032H66.7647V19.9462V18.1941V14.3652V12.7611V9.21875H64.2773V12.9807V23.6032V31.7287C64.3585 33.6192 65.6427 33.9773 66.3302 34.0298H66.7647H70.7319H81.5692H82.8439V31.533H81.5692H70.7319Z" fill="white"/>
</mask>
<g mask="url(#mask1_1209_2395)">
<path opacity="0.5" d="M70.814 31.9392H69.6968H69.3388H68.9091C68.2169 31.8772 66.9326 31.5239 66.8515 29.6333V28.9697H66.8467V24.1813C66.7942 24.124 66.7703 24.0619 66.7226 24.0094H66.8467V20.3524V18.6003V14.7715V13.1674V9.625H64.3594V13.387V24.0094V32.135C64.4405 34.0255 65.7248 34.3836 66.4122 34.4361H66.8467H70.8044H81.6417H82.9164V31.9392H81.6417H70.814Z" fill="url(#paint5_linear_1209_2395)"/>
</g>
<mask id="mask2_1209_2395" style="mask-type:luminance" maskUnits="userSpaceOnUse" x="88" y="8" width="25" height="27">
<path d="M101.111 8.67926C99.4779 8.727 97.9549 9.04686 96.58 9.61021C95.0284 10.2643 93.6296 11.2048 92.4265 12.3983C91.2425 13.6157 90.3116 15.0097 89.6527 16.5422C88.9844 18.1654 88.6406 19.8602 88.6406 21.5789C88.6406 23.3071 88.9844 25.0115 89.6527 26.6299C90.3116 28.1863 91.2473 29.5803 92.436 30.7691C93.6248 31.9626 95.0236 32.9031 96.5847 33.5572C97.7926 34.0537 99.0864 34.3592 100.433 34.4738V34.5263H110.081C110.783 34.4738 112.062 34.1157 112.21 32.2825C112.22 32.2825 112.22 32.2825 112.225 32.2825V31.1319V24.4577V21.894C112.22 21.894 112.22 21.894 112.21 21.894C112.062 20.0703 110.778 19.7075 110.081 19.6502H109.389V19.6454H104.486H101.111H98.6758V21.0251H98.6663V22.2568H101.101H102.944H105.383H107.479C108.172 22.3141 109.432 22.6626 109.609 24.4291V29.7427C109.432 31.5138 108.172 31.8624 107.479 31.9196H100.542C95.3339 31.3706 91.2664 26.945 91.2664 21.5789C91.2664 16.0171 95.6347 11.4673 101.111 11.1952V11.2143H112.225V8.66016H101.111V8.67926Z" fill="white"/>
</mask>
<g mask="url(#mask2_1209_2395)">
<path opacity="0.5" d="M101.189 9.07769C99.556 9.1302 98.0331 9.4453 96.6581 10.0086C95.1065 10.6627 93.7077 11.6032 92.5046 12.7967C91.3206 14.0141 90.3897 15.4082 89.7309 16.9407C89.0625 18.5639 88.7188 20.2587 88.7188 21.9773C88.7188 23.7056 89.0625 25.4099 89.7309 27.0284C90.3897 28.5847 91.3254 29.9788 92.5142 31.1675C93.7029 32.361 95.1017 33.3015 96.6629 33.9556C97.8707 34.4521 99.1645 34.7577 100.511 34.8722V34.9247H110.159C110.861 34.8722 112.141 34.5142 112.289 32.6809C112.298 32.6809 112.298 32.6809 112.303 32.6809V31.5304V24.8561V22.2924C112.298 22.2924 112.298 22.2924 112.289 22.2924C112.141 20.4687 110.856 20.1059 110.159 20.0486H109.467V20.0438H104.564H101.189H98.7539V21.4235H98.7444V22.6553H101.179H103.022H105.462H107.557C108.25 22.7126 109.51 23.0611 109.687 24.8275V30.1411C109.51 31.9123 108.25 32.2608 107.557 32.3181H100.621C95.4121 31.7691 91.3445 27.3435 91.3445 21.9773C91.3445 16.4155 95.7128 11.8658 101.189 11.5936V11.6127H112.303V9.05859H101.189V9.07769Z" fill="url(#paint6_linear_1209_2395)"/>
</g>
<mask id="mask3_1209_2395" style="mask-type:luminance" maskUnits="userSpaceOnUse" x="35" y="9" width="22" height="25">
<path d="M51.6039 9.16797H47.5268C40.676 9.16797 35.1094 14.7203 35.1094 21.5807C35.1094 28.4458 40.6712 33.9934 47.5268 33.9934H51.6039H52.4299H56.2444V31.4822H52.4299H51.6039H47.5268C42.3708 31.4822 38.1314 27.534 37.6683 22.4877H38.2364H50.8735H51.6087H52.4346H56.2492V19.9861H52.4346H51.6087H50.8735H38.2364H37.759C38.5229 15.2693 42.6095 11.6792 47.5268 11.6792H51.6039H52.4299H56.2444V9.16797H52.4299H51.6039Z" fill="white"/>
</mask>
<g mask="url(#mask3_1209_2395)">
<path opacity="0.5" d="M51.6899 9.57031H47.6128C40.7619 9.57031 35.1953 15.1226 35.1953 21.983C35.1953 28.8482 40.7572 34.3957 47.6128 34.3957H51.6899H52.5158H56.3303V31.8845H52.5158H51.6899H47.6128C42.4567 31.8845 38.2173 27.9363 37.7542 22.8901H38.3224H50.9594H51.6947H52.5206H56.3351V20.3885H52.5206H51.6947H50.9594H38.3176H37.8402C38.604 15.6716 42.6907 12.0815 47.608 12.0815H51.6851H52.511H56.3256V9.57031H52.511H51.6899Z" fill="url(#paint7_linear_1209_2395)"/>
</g>
<mask id="mask4_1209_2395" style="mask-type:luminance" maskUnits="userSpaceOnUse" x="0" y="5" width="24" height="32">
<path d="M10.1524 21.6092C10.2097 21.5853 10.5486 21.4469 11.0785 21.2273C11.5798 21.0172 12.2434 20.726 12.9977 20.3822C13.8571 19.986 14.8262 19.5229 15.8001 19.0168C17.4759 18.1432 19.1468 17.1549 20.2114 16.2097C20.2449 16.181 20.2735 16.1524 20.3069 16.1237C20.4836 15.9614 20.6459 15.8039 20.7843 15.6463C22.8181 13.3118 23.7634 11.2016 23.6727 8.25121C23.6154 6.4084 23.3671 6.32724 23.3242 5.90234C23.3242 5.90234 23.2287 10.6526 15.6951 13.4932C12.9214 14.5387 10.9353 15.3646 9.42671 16.0617C7.25449 17.069 6.09438 17.8472 5.15865 18.8068C2.01728 21.571 0.03125 25.6624 0.03125 30.2312C0.03125 32.5515 0.546853 34.7428 1.45871 36.7049C1.45394 36.6667 1.45871 36.6238 1.45393 36.5856C1.42052 36.1893 1.40142 35.7883 1.40142 35.3825C1.40142 29.243 4.99633 23.9581 10.1524 21.6092Z" fill="white"/>
</mask>
<g mask="url(#mask4_1209_2395)">
<path opacity="0.3" d="M10.3794 21.0828C10.4319 21.0685 10.7279 20.9635 11.1958 20.7964C11.635 20.6388 12.2222 20.4192 12.8906 20.1614C13.6497 19.8654 14.509 19.5121 15.3684 19.1254C16.8531 18.4571 18.3426 17.6884 19.307 16.9293C19.3357 16.9055 19.3643 16.8816 19.3929 16.8577C19.5553 16.7288 19.7033 16.5952 19.8274 16.471C21.6893 14.5614 22.6107 12.795 22.6775 10.2456C22.7205 8.6558 22.5104 8.57464 22.4914 8.20703C22.4914 8.20703 22.1715 12.2889 15.5498 14.3609C13.1102 15.1247 11.3581 15.7358 10.0261 16.261C8.10694 17.02 7.07096 17.6311 6.21639 18.4093C3.37579 20.6341 1.46137 24.0571 1.23699 27.991C1.12241 29.9865 1.4566 31.901 2.14407 33.6387C2.14407 33.6053 2.14407 33.5719 2.14407 33.5337C2.13452 33.19 2.1393 32.8462 2.15839 32.4977C2.46871 27.2176 5.82492 22.8492 10.3794 21.0828Z" fill="url(#paint8_linear_1209_2395)"/>
</g>
<defs>
<linearGradient id="paint0_linear_1209_2395" x1="15.9785" y1="11.6877" x2="11.323" y2="1.04179" gradientUnits="userSpaceOnUse">
<stop offset="0.0102" stop-color="#F69321"/>
<stop offset="0.551" stop-color="#FFF200"/>
<stop offset="1" stop-color="#F7941D"/>
</linearGradient>
<linearGradient id="paint1_linear_1209_2395" x1="7.19484" y1="30.011" x2="28.4693" y2="30.011" gradientUnits="userSpaceOnUse">
<stop offset="0.0102" stop-color="#F69321"/>
<stop offset="0.551" stop-color="#FFF200"/>
<stop offset="1" stop-color="#F7941D"/>
</linearGradient>
<linearGradient id="paint2_linear_1209_2395" x1="11.4054" y1="28.7986" x2="28.4407" y2="28.7986" gradientUnits="userSpaceOnUse">
<stop offset="0.4235" stop-color="#1B4177"/>
<stop offset="1" stop-color="#00AEEF"/>
</linearGradient>
<linearGradient id="paint3_linear_1209_2395" x1="13.4522" y1="5.68683" x2="21.3452" y2="5.68683" gradientUnits="userSpaceOnUse">
<stop offset="0.4235" stop-color="#1B4177"/>
<stop offset="1" stop-color="#00AEEF"/>
</linearGradient>
<linearGradient id="paint4_linear_1209_2395" x1="119.865" y1="22.0725" x2="144.616" y2="22.0725" gradientUnits="userSpaceOnUse">
<stop offset="0.0102" stop-color="#F69321"/>
<stop offset="0.551" stop-color="#FFF200"/>
<stop offset="1" stop-color="#F7941D"/>
</linearGradient>
<linearGradient id="paint5_linear_1209_2395" x1="64.3641" y1="22.0315" x2="82.9261" y2="22.0315" gradientUnits="userSpaceOnUse">
<stop offset="0.0102" stop-color="#F69321"/>
<stop offset="0.551" stop-color="#FFF200"/>
<stop offset="1" stop-color="#F7941D"/>
</linearGradient>
<linearGradient id="paint6_linear_1209_2395" x1="88.7209" y1="21.9948" x2="112.303" y2="21.9948" gradientUnits="userSpaceOnUse">
<stop offset="0.0102" stop-color="#F69321"/>
<stop offset="0.551" stop-color="#FFF200"/>
<stop offset="1" stop-color="#F7941D"/>
</linearGradient>
<linearGradient id="paint7_linear_1209_2395" x1="35.1925" y1="21.9871" x2="56.3271" y2="21.9871" gradientUnits="userSpaceOnUse">
<stop offset="0.0102" stop-color="#F69321"/>
<stop offset="0.551" stop-color="#FFF200"/>
<stop offset="1" stop-color="#F7941D"/>
</linearGradient>
<linearGradient id="paint8_linear_1209_2395" x1="1.2155" y1="20.9286" x2="22.6814" y2="20.9286" gradientUnits="userSpaceOnUse">
<stop stop-color="#00AEEF"/>
<stop offset="0.0194" stop-color="#00A0DC"/>
<stop offset="0.0649" stop-color="#0088BF"/>
<stop offset="0.1136" stop-color="#0074A8"/>
<stop offset="0.1649" stop-color="#006597"/>
<stop offset="0.2196" stop-color="#00588B"/>
<stop offset="0.2789" stop-color="#004E82"/>
<stop offset="0.345" stop-color="#12477C"/>
<stop offset="0.4235" stop-color="#194378"/>
<stop offset="0.5459" stop-color="#1B4177"/>
<stop offset="0.6573" stop-color="#194278"/>
<stop offset="0.7228" stop-color="#13477B"/>
<stop offset="0.7766" stop-color="#004E81"/>
<stop offset="0.8239" stop-color="#00578A"/>
<stop offset="0.867" stop-color="#006396"/>
<stop offset="0.907" stop-color="#0072A6"/>
<stop offset="0.9447" stop-color="#0085BB"/>
<stop offset="0.9795" stop-color="#009BD6"/>
<stop offset="1" stop-color="#00AEEF"/>
</linearGradient>
</defs>
</svg>
